<svg xmlns="http://www.w3.org/2000/svg" width="34" height="16" viewBox="0 0 34 16" fill="none">

  <!-- ICON 1 (bên trái) -->
  <path d="M16.9682 0.869862L16.2322 0.133919C16.0242 -0.0740721 15.6402 -0.042063 15.4002 0.245882L12.84 2.78985C11.688 2.29391 10.4241 2.05391 9.09604 2.05391C5.14392 2.06984 1.72014 4.37381 0.0720207 7.68602C-0.0240069 7.89401 -0.0240069 8.14994 0.0720207 8.32593C0.839954 9.89395 1.99202 11.19 3.43203 12.1659L1.33603 14.2939C1.09603 14.5339 1.06402 14.9179 1.22407 15.1259L1.96002 15.8618C2.16801 16.0698 2.55199 16.0378 2.79199 15.7499L16.8399 1.70198C17.1439 1.46211 17.1759 1.07815 16.9679 0.870136L16.9682 0.869862ZM9.94403 5.70175C9.67202 5.63773 9.38407 5.55778 9.11205 5.55778C7.752 5.55778 6.66411 6.6458 6.66411 8.00571C6.66411 8.27772 6.72813 8.56566 6.80809 8.83768L5.73597 9.89372C5.41601 9.33376 5.24003 8.70966 5.24003 8.00574C5.24003 5.87776 6.95205 4.16574 9.08003 4.16574C9.78409 4.16574 10.4081 4.34172 10.968 4.66168L9.94403 5.70175Z"
        fill="#666666" fill-opacity="0.8" />

  <!-- ICON 2 (bên phải) -->
  <path transform="translate(8,4)"
    d="M11.2319 2.94401C10.672 1.82397 9.93589 0.816034 9.02399 0L6.04795 2.94401V3.26397C6.04795 5.39194 4.33592 7.10397 2.20794 7.10397H1.88798L0 8.99194C0.704059 9.13592 1.44 9.23194 2.16001 9.23194C6.11213 9.23194 9.53591 6.92798 11.184 3.59983C11.328 3.37577 11.328 3.15185 11.232 2.94384L11.2319 2.94401Z"
    fill="#666666" fill-opacity="0.8" />
</svg>
