<svg width="26" height="26" viewBox="0 0 26 26" fill="none" xmlns="http://www.w3.org/2000/svg">
<g clip-path="url(#clip0_4934_4003)">
<path d="M20.5835 22.75H5.41683C5.12951 22.75 4.85396 22.6358 4.6508 22.4327C4.44763 22.2295 4.3335 21.9539 4.3335 21.6666V11.9166H1.0835L12.2711 1.74629C12.4705 1.5648 12.7305 1.46423 13.0002 1.46423C13.2698 1.46423 13.5298 1.5648 13.7292 1.74629L24.9168 11.9166H21.6668V21.6666C21.6668 21.9539 21.5527 22.2295 21.3495 22.4327C21.1464 22.6358 20.8708 22.75 20.5835 22.75ZM6.50016 20.5833H19.5002V9.92004L13.0002 4.01154L6.50016 9.92004V20.5833Z" fill="white"/>
</g>
<defs>
<clipPath id="clip0_4934_4003">
<rect width="26" height="26" fill="white"/>
</clipPath>
</defs>
</svg>
